<svg id="Layer_1" enable-background="new 0 0 512 512" height="512" viewBox="0 0 512 512" width="512" xmlns="http://www.w3.org/2000/svg"><g><g><path d="m436.75 421.625h-361.5c-8.284 0-15-6.716-15-15v-301.25c0-8.284 6.716-15 15-15h361.5c8.284 0 15 6.716 15 15v301.25c0 8.284-6.716 15-15 15z" fill="#fff959"/></g><path d="m436.75 90.375h-180.75v331.25h180.75c8.284 0 15-6.716 15-15v-301.25c0-8.284-6.716-15-15-15z" fill="#ffe733"/><g><path d="m376.5 180.625h-120.5c-8.284 0-15-6.716-15-15s6.716-15 15-15h120.5c8.284 0 15 6.716 15 15s-6.716 15-15 15z" fill="#23272b"/></g><path d="m376.5 180.625c8.284 0 15-6.716 15-15s-6.716-15-15-15h-120.5v30z" fill="#0b0c0d"/><g><path d="m256 240.875h-120.5c-8.284 0-15-6.716-15-15s6.716-15 15-15h120.5c8.284 0 15 6.716 15 15s-6.716 15-15 15z" fill="#23272b"/></g><path d="m271 225.875c0-8.284-6.716-15-15-15v30c8.284 0 15-6.716 15-15z" fill="#0b0c0d"/><g><path d="m376.5 301.125h-241c-8.284 0-15-6.716-15-15s6.716-15 15-15h241c8.284 0 15 6.716 15 15s-6.716 15-15 15z" fill="#23272b"/></g><path d="m376.5 271.125h-120.5v30h120.5c8.284 0 15-6.716 15-15s-6.716-15-15-15z" fill="#0b0c0d"/><g><path d="m256 361.375h-120.5c-8.284 0-15-6.716-15-15s6.716-15 15-15h120.5c8.284 0 15 6.716 15 15s-6.716 15-15 15z" fill="#23272b"/></g><path d="m271 346.375c0-8.284-6.716-15-15-15v30c8.284 0 15-6.716 15-15z" fill="#0b0c0d"/><g><path d="m195.75 180.625h-60.25c-8.284 0-15-6.716-15-15s6.716-15 15-15h60.25c8.284 0 15 6.716 15 15s-6.716 15-15 15z" fill="#23272b"/></g><g><path d="m376.5 240.875h-60.25c-8.284 0-15-6.716-15-15s6.716-15 15-15h60.25c8.284 0 15 6.716 15 15s-6.716 15-15 15z" fill="#0b0c0d"/></g><g><path d="m376.5 361.375h-60.25c-8.284 0-15-6.716-15-15s6.716-15 15-15h60.25c8.284 0 15 6.716 15 15s-6.716 15-15 15z" fill="#0b0c0d"/></g><g><path d="m45.125 512c-24.882 0-45.125-20.243-45.125-45.125s20.243-45.125 45.125-45.125 45.125 20.243 45.125 45.125-20.243 45.125-45.125 45.125z" fill="#ffe733"/></g><g><path d="m45.125 90.25c-24.882 0-45.125-20.243-45.125-45.125s20.243-45.125 45.125-45.125 45.125 20.243 45.125 45.125-20.243 45.125-45.125 45.125z" fill="#ffe733"/></g><circle cx="466.875" cy="466.875" fill="#ffd230" r="45.125"/><circle cx="466.875" cy="45.125" fill="#ffd230" r="45.125"/><g><path d="m75.25 451.75h-60.25c-8.284 0-15-6.716-15-15v-361.5c0-8.284 6.716-15 15-15h60.25c8.284 0 15 6.716 15 15v361.5c0 8.284-6.716 15-15 15z" fill="#ffd230"/></g><path d="m497 60.25h-60.25c-8.284 0-15 6.716-15 15v361.5c0 8.284 6.716 15 15 15h60.25c8.284 0 15-6.716 15-15v-361.5c0-8.284-6.716-15-15-15z" fill="#ffb13b"/></g></svg>